<svg width="512px" height="512px" viewBox="0 0 512 512" version="1.1"
     xmlns="http://www.w3.org/2000/svg">

  <circle cx="256" cy="256" r="255" fill="white"/>

  <g fill="#D30000">
    <svg x="112px" y="-32px" width="330px" viewBox="0 0 512 512">
      <g class="fa-group">
        <path fill-opacity="0.4"
              d="M224 96C109.12 96 16 189.12 16 304s93.12 208 208 208 208-93.12 208-208S338.88 96 224 96zm32 240a16 16 0 0 1-16 16h-32a16 16 0 0 1-16-16V208.5a16 16 0 0 1 16-16h32a16 16 0 0 1 16 16z"
        ></path>
        <path
          d="M240 192.5h-32a16 16 0 0 0-16 16V336a16 16 0 0 0 16 16h32a16 16 0 0 0 16-16V208.5a16 16 0 0 0-16-16zm188.53-48.57l-28.3-28.3a12 12 0 0 0-17 0l-27.45 27.45a209.14 209.14 0 0 1 42.8 47.8l.55-.55 29.4-29.4a12 12 0 0 0 0-17zM280 0H168a16 16 0 0 0-16 16v32a16 16 0 0 0 16 16h24v34.45a210 210 0 0 1 64 0V64h24a16 16 0 0 0 16-16V16a16 16 0 0 0-16-16z"
        ></path>
      </g>
    </svg>

    <g transform="rotate(21 256 256)">
      <svg x="71" y="0" width="370px" viewBox="0 0 576 512">
        <path fill-opacity="0.6"
              d="M107.33 79.6L96 68.53a16.41 16.41 0 0 0-23.56 1C25.59 121 0 186.58 0 256s25.59 135 72.44 186.52a16.41 16.41 0 0 0 23.56 1l11.33-11.07c6.11-6 6.06-15.39.36-21.71a230.28 230.28 0 0 1 0-309.37c5.7-6.37 5.75-15.81-.36-21.77zm396.23-10.12a16.41 16.41 0 0 0-23.56-1L468.67 79.6c-6.11 6-6.06 15.39-.36 21.72a230.28 230.28 0 0 1 0 309.37c-5.7 6.32-5.75 15.75.36 21.71L480 443.47a16.41 16.41 0 0 0 23.56-1C550.41 391 576 325.42 576 256s-25.59-135-72.44-186.52z"
        />
      </svg>

      <svg x="16" y="0" width="480px" viewBox="0 0 576 512">
        <path fill-opacity="0.8"
              d="M107.33 79.6L96 68.53a16.41 16.41 0 0 0-23.56 1C25.59 121 0 186.58 0 256s25.59 135 72.44 186.52a16.41 16.41 0 0 0 23.56 1l11.33-11.07c6.11-6 6.06-15.39.36-21.71a230.28 230.28 0 0 1 0-309.37c5.7-6.37 5.75-15.81-.36-21.77zm396.23-10.12a16.41 16.41 0 0 0-23.56-1L468.67 79.6c-6.11 6-6.06 15.39-.36 21.72a230.28 230.28 0 0 1 0 309.37c-5.7 6.32-5.75 15.75.36 21.71L480 443.47a16.41 16.41 0 0 0 23.56-1C550.41 391 576 325.42 576 256s-25.59-135-72.44-186.52z"
        />
      </svg>
    </g>
  </g>
</svg>
