<svg version="1.1" xmlns="http://www.w3.org/2000/svg" width="512px" height="512px"  viewBox="0 0 512 512">

  <circle cx="256" cy="256" r="255" fill="white"/>

    <svg x="91px" y="-36px" width="330px" viewBox="0 0 448 512">
      <path fill="#4c6ef5"
            d="M432 304c0 114.9-93.1 208-208 208S16 418.9 16 304c0-104 76.3-190.2 176-205.5V64h-28c-6.6 0-12-5.4-12-12V12c0-6.6 5.4-12 12-12h120c6.6 0 12 5.4 12 12v40c0 6.6-5.4 12-12 12h-28v34.5c37.5 5.8 71.7 21.6 99.7 44.6l27.5-27.5c4.7-4.7 12.3-4.7 17 0l28.3 28.3c4.7 4.7 4.7 12.3 0 17l-29.4 29.4-.6.6C419.7 223.3 432 262.2 432 304zm-176 36V188.5c0-6.6-5.4-12-12-12h-40c-6.6 0-12 5.4-12 12V340c0 6.6 5.4 12 12 12h40c6.6 0 12-5.4 12-12z"
      ></path>
    </svg>

  <svg x="12" width="488px" viewBox="0 0 576 512">
    <g transform="rotate(20 288 256)">
      <path fill="#4c6ef5"
            d="M107.33 79.6L96 68.53a16.41 16.41 0 0 0-23.56 1C25.59 121 0 186.58 0 256s25.59 135 72.44 186.52a16.41 16.41 0 0 0 23.56 1l11.33-11.07c6.11-6 6.06-15.39.36-21.71a230.28 230.28 0 0 1 0-309.37c5.7-6.37 5.75-15.81-.36-21.77zm396.23-10.12a16.41 16.41 0 0 0-23.56-1L468.67 79.6c-6.11 6-6.06 15.39-.36 21.72a230.28 230.28 0 0 1 0 309.37c-5.7 6.32-5.75 15.75.36 21.71L480 443.47a16.41 16.41 0 0 0 23.56-1C550.41 391 576 325.42 576 256s-25.59-135-72.44-186.52z"
            class=""></path>
    </g>
  </svg>

  <svg x="62" width="388px" viewBox="0 0 576 512">
    <g transform="rotate(20 288 256)">
      <path fill="#4c6ef5"
            d="M107.33 79.6L96 68.53a16.41 16.41 0 0 0-23.56 1C25.59 121 0 186.58 0 256s25.59 135 72.44 186.52a16.41 16.41 0 0 0 23.56 1l11.33-11.07c6.11-6 6.06-15.39.36-21.71a230.28 230.28 0 0 1 0-309.37c5.7-6.37 5.75-15.81-.36-21.77zm396.23-10.12a16.41 16.41 0 0 0-23.56-1L468.67 79.6c-6.11 6-6.06 15.39-.36 21.72a230.28 230.28 0 0 1 0 309.37c-5.7 6.32-5.75 15.75.36 21.71L480 443.47a16.41 16.41 0 0 0 23.56-1C550.41 391 576 325.42 576 256s-25.59-135-72.44-186.52z"
            class=""></path>
    </g>
  </svg>

<!--      <svg x="111px" y="-32px" width="330px" viewBox="0 0 512 512">-->
<!--        <path-->
<!--          d="M432 304c0 114.9-93.1 208-208 208S16 418.9 16 304c0-104 76.3-190.2 176-205.5V64h-28c-6.6 0-12-5.4-12-12V12c0-6.6 5.4-12 12-12h120c6.6 0 12 5.4 12 12v40c0 6.6-5.4 12-12 12h-28v34.5c37.5 5.8 71.7 21.6 99.7 44.6l27.5-27.5c4.7-4.7 12.3-4.7 17 0l28.3 28.3c4.7 4.7 4.7 12.3 0 17l-29.4 29.4-.6.6C419.7 223.3 432 262.2 432 304zm-176 36V188.5c0-6.6-5.4-12-12-12h-40c-6.6 0-12 5.4-12 12V340c0 6.6 5.4 12 12 12h40c6.6 0 12-5.4 12-12z"-->
<!--        />-->
<!--      </svg>-->

  <!--    <svg x="177px" y="-18px" width="160px" viewBox="0 0 448 512">-->
  <!--      <path fill="#4c6ef5"-->
  <!--            d="M432 304c0 114.9-93.1 208-208 208S16 418.9 16 304c0-104 76.3-190.2 176-205.5V64h-28c-6.6 0-12-5.4-12-12V12c0-6.6 5.4-12 12-12h120c6.6 0 12 5.4 12 12v40c0 6.6-5.4 12-12 12h-28v34.5c37.5 5.8 71.7 21.6 99.7 44.6l27.5-27.5c4.7-4.7 12.3-4.7 17 0l28.3 28.3c4.7 4.7 4.7 12.3 0 17l-29.4 29.4-.6.6C419.7 223.3 432 262.2 432 304zm-176 36V188.5c0-6.6-5.4-12-12-12h-40c-6.6 0-12 5.4-12 12V340c0 6.6 5.4 12 12 12h40c6.6 0 12-5.4 12-12z"-->
  <!--      ></path>-->
  <!--    </svg>-->

  <!--    <svg x="156px" y="-22px" width="200px" viewBox="0 0 448 512">-->
  <!--      <path fill="#4c6ef5"-->
  <!--            d="M432 304c0 114.9-93.1 208-208 208S16 418.9 16 304c0-104 76.3-190.2 176-205.5V64h-28c-6.6 0-12-5.4-12-12V12c0-6.6 5.4-12 12-12h120c6.6 0 12 5.4 12 12v40c0 6.6-5.4 12-12 12h-28v34.5c37.5 5.8 71.7 21.6 99.7 44.6l27.5-27.5c4.7-4.7 12.3-4.7 17 0l28.3 28.3c4.7 4.7 4.7 12.3 0 17l-29.4 29.4-.6.6C419.7 223.3 432 262.2 432 304zm-176 36V188.5c0-6.6-5.4-12-12-12h-40c-6.6 0-12 5.4-12 12V340c0 6.6 5.4 12 12 12h40c6.6 0 12-5.4 12-12z"-->
  <!--      ></path>-->
  <!--    </svg>-->


  <!--  <svg x="12" width="488px" viewBox="0 0 576 512">-->
  <!--    <g transform="rotate(20 288 256)">-->
  <!--      <path fill="#4c6ef5"-->
  <!--            d="M64 256a214.3 214.3 0 0 1 55.42-144.06c5.59-6.22 4.91-15.74-1.08-21.59L96 68.53a16.41 16.41 0 0 0-23.56 1C25.59 121 0 186.56 0 256s25.59 135 72.44 186.52a16.41 16.41 0 0 0 23.56 1l22.34-21.82c6-5.85 6.67-15.37 1.08-21.59A214.3 214.3 0 0 1 64 256zm134.27-87.63l-22.76-22.23a16.44 16.44 0 0 0-24 1.31 168.77 168.77 0 0 0 0 217.1 16.44 16.44 0 0 0 24 1.31l22.76-22.22a15.12 15.12 0 0 0 1.45-20.32 107.39 107.39 0 0 1 0-134.64 15.11 15.11 0 0 0-1.45-20.31zm305.29-98.89a16.41 16.41 0 0 0-23.56-1l-22.34 21.87c-6 5.85-6.67 15.37-1.08 21.59a214.95 214.95 0 0 1 0 288.12c-5.59 6.22-4.91 15.74 1.08 21.59L480 443.47a16.41 16.41 0 0 0 23.56-1C550.41 391 576 325.44 576 256s-25.59-135-72.44-186.52zm-79.1 78a16.44 16.44 0 0 0-24-1.31L377.7 168.4a15.11 15.11 0 0 0-1.45 20.31 107.39 107.39 0 0 1 0 134.64 15.12 15.12 0 0 0 1.45 20.32l22.76 22.22a16.44 16.44 0 0 0 24-1.31 168.77 168.77 0 0 0 0-217.1z"-->
  <!--      ></path>-->
  <!--    </g>-->
  <!--  </svg>-->

<!--  Dot = a56 56 0 1 0 56 56 56 56 0 0 0-56-56z -->
<!--  <svg x="12" width="488px" viewBox="0 0 576 512">-->
<!--    <g transform="rotate(20 288 256)">-->
<!--      <path fill="#4c6ef5"-->
<!--            d="M186.87 157.25l-11.37-11.11a16.44 16.44 0 0 0-24 1.3 168.83 168.83 0 0 0 0 217.12 16.44 16.44 0 0 0 24 1.3l11.37-11.11a15.14 15.14 0 0 0 1.29-20.53 122.72 122.72 0 0 1 0-156.44 15.15 15.15 0 0 0-1.29-20.53z M107.33 79.6L96 68.53a16.41 16.41 0 0 0-23.56 1C25.59 121 0 186.58 0 256s25.59 135 72.44 186.52a16.41 16.41 0 0 0 23.56 1l11.33-11.07c6.11-6 6.06-15.39.36-21.71a230.28 230.28 0 0 1 0-309.37c5.7-6.37 5.75-15.81-.36-21.77zm396.23-10.12a16.41 16.41 0 0 0-23.56-1L468.67 79.6c-6.11 6-6.06 15.39-.36 21.72a230.28 230.28 0 0 1 0 309.37c-5.7 6.32-5.75 15.75.36 21.71L480 443.47a16.41 16.41 0 0 0 23.56-1C550.41 391 576 325.42 576 256s-25.59-135-72.44-186.52zM288 200m112.5-53.86l-11.37 11.11a15.15 15.15 0 0 0-1.29 20.53 122.72 122.72 0 0 1 0 156.44 15.15 15.15 0 0 0 1.29 20.53l11.37 11.11a16.44 16.44 0 0 0 24-1.3 168.83 168.83 0 0 0 0-217.12 16.44 16.44 0 0 0-24-1.3z"-->
<!--            class=""></path>-->
<!--    </g>-->
<!--  </svg>-->

<!--  <svg x="12" width="488px" viewBox="0 0 576 512">-->
<!--    <g transform="rotate(20 288 256)">-->
<!--      <path fill="#4c6ef5"-->
<!--            d="M186.87 157.25l-11.37-11.11a16.44 16.44 0 0 0-24 1.3 168.83 168.83 0 0 0 0 217.12 16.44 16.44 0 0 0 24 1.3l11.37-11.11a15.14 15.14 0 0 0 1.29-20.53 122.72 122.72 0 0 1 0-156.44 15.15 15.15 0 0 0-1.29-20.53z M107.33 79.6L96 68.53a16.41 16.41 0 0 0-23.56 1C25.59 121 0 186.58 0 256s25.59 135 72.44 186.52a16.41 16.41 0 0 0 23.56 1l11.33-11.07c6.11-6 6.06-15.39.36-21.71a230.28 230.28 0 0 1 0-309.37c5.7-6.37 5.75-15.81-.36-21.77zm396.23-10.12a16.41 16.41 0 0 0-23.56-1L468.67 79.6c-6.11 6-6.06 15.39-.36 21.72a230.28 230.28 0 0 1 0 309.37c-5.7 6.32-5.75 15.75.36 21.71L480 443.47a16.41 16.41 0 0 0 23.56-1C550.41 391 576 325.42 576 256s-25.59-135-72.44-186.52zM288 200m112.5-53.86l-11.37 11.11a15.15 15.15 0 0 0-1.29 20.53 122.72 122.72 0 0 1 0 156.44 15.15 15.15 0 0 0 1.29 20.53l11.37 11.11a16.44 16.44 0 0 0 24-1.3 168.83 168.83 0 0 0 0-217.12 16.44 16.44 0 0 0-24-1.3z"-->
<!--            class=""></path>-->
<!--    </g>-->
<!--  </svg>-->


  <!--  <svg x="12" width="488px" viewBox="0 0 576 512">-->
  <!--    <g transform="rotate(20 288 256)">-->
  <!--      <path fill="#4c6ef5"-->
  <!--            d="M96.81 77.93L85.47 66.41a8 8 0 0 0-11.55.1C26.18 118 0 185 0 256s26.18 138 73.92 189.49a8 8 0 0 0 11.55.09l11.34-11.51a8.13 8.13 0 0 0 .07-11.24C55 377.45 32 318.51 32 256S55 134.55 96.88 89.17a8.13 8.13 0 0 0-.07-11.24zm83.93 69l-11.3-11.49a8 8 0 0 0-11.64.15 181.1 181.1 0 0 0 0 240.76 8 8 0 0 0 11.64.15l11.3-11.5a8.21 8.21 0 0 0 .14-11.22 148.17 148.17 0 0 1 0-195.64 8.21 8.21 0 0 0-.14-11.14zm321.35-80.42a8 8 0 0 0-11.56-.1l-11.34 11.52a8.13 8.13 0 0 0-.07 11.24C521 134.55 544 193.49 544 256s-23 121.45-64.88 166.83a8.13 8.13 0 0 0 .07 11.24l11.34 11.51a8 8 0 0 0 11.56-.09C549.82 394 576 327 576 256s-26.18-138-73.91-189.49zM288 192a64 64 0 1 0 64 64 64 64 0 0 0-64-64zm0 96a32 32 0 1 1 32-32 32 32 0 0 1-32 32zm118.56-152.53L395.26 147a8.21 8.21 0 0 0-.14 11.22 148.17 148.17 0 0 1 0 195.64 8.21 8.21 0 0 0 .14 11.22l11.3 11.49a8 8 0 0 0 11.64-.15 181.1 181.1 0 0 0 0-240.76 8 8 0 0 0-11.64-.19z"-->
  <!--            class=""></path>-->
  <!--    </g>-->
  <!--  </svg>-->


</svg>
