<svg width="512px" height="512px" viewBox="0 0 512 512" version="1.1"
     xmlns="http://www.w3.org/2000/svg">

  <g fill="#D30000">
    <svg x="111px" y="-32px" width="330px" viewBox="0 0 512 512">
      <path
        d="M432 304c0 114.9-93.1 208-208 208S16 418.9 16 304c0-104 76.3-190.2 176-205.5V64h-28c-6.6 0-12-5.4-12-12V12c0-6.6 5.4-12 12-12h120c6.6 0 12 5.4 12 12v40c0 6.6-5.4 12-12 12h-28v34.5c37.5 5.8 71.7 21.6 99.7 44.6l27.5-27.5c4.7-4.7 12.3-4.7 17 0l28.3 28.3c4.7 4.7 4.7 12.3 0 17l-29.4 29.4-.6.6C419.7 223.3 432 262.2 432 304zm-176 36V188.5c0-6.6-5.4-12-12-12h-40c-6.6 0-12 5.4-12 12V340c0 6.6 5.4 12 12 12h40c6.6 0 12-5.4 12-12z"
      />
    </svg>

    <g transform="rotate(21 256 256)">
      <svg x="71" y="0" width="370px" viewBox="0 0 576 512">
        <path
          d="M107.33 79.6L96 68.53a16.41 16.41 0 0 0-23.56 1C25.59 121 0 186.58 0 256s25.59 135 72.44 186.52a16.41 16.41 0 0 0 23.56 1l11.33-11.07c6.11-6 6.06-15.39.36-21.71a230.28 230.28 0 0 1 0-309.37c5.7-6.37 5.75-15.81-.36-21.77zm396.23-10.12a16.41 16.41 0 0 0-23.56-1L468.67 79.6c-6.11 6-6.06 15.39-.36 21.72a230.28 230.28 0 0 1 0 309.37c-5.7 6.32-5.75 15.75.36 21.71L480 443.47a16.41 16.41 0 0 0 23.56-1C550.41 391 576 325.42 576 256s-25.59-135-72.44-186.52z"
        />
      </svg>

      <svg x="16" y="0" width="480px" viewBox="0 0 576 512">
        <path
          d="M107.33 79.6L96 68.53a16.41 16.41 0 0 0-23.56 1C25.59 121 0 186.58 0 256s25.59 135 72.44 186.52a16.41 16.41 0 0 0 23.56 1l11.33-11.07c6.11-6 6.06-15.39.36-21.71a230.28 230.28 0 0 1 0-309.37c5.7-6.37 5.75-15.81-.36-21.77zm396.23-10.12a16.41 16.41 0 0 0-23.56-1L468.67 79.6c-6.11 6-6.06 15.39-.36 21.72a230.28 230.28 0 0 1 0 309.37c-5.7 6.32-5.75 15.75.36 21.71L480 443.47a16.41 16.41 0 0 0 23.56-1C550.41 391 576 325.42 576 256s-25.59-135-72.44-186.52z"
        />
      </svg>
    </g>
  </g>
</svg>
