<?xml version="1.0" standalone="no"?>
<!DOCTYPE svg PUBLIC "-//W3C//DTD SVG 20010904//EN"
 "http://www.w3.org/TR/2001/REC-SVG-20010904/DTD/svg10.dtd">
<svg version="1.0" xmlns="http://www.w3.org/2000/svg"
 width="700.000000pt" height="700.000000pt" viewBox="0 0 700.000000 700.000000"
 preserveAspectRatio="xMidYMid meet">
<metadata>
Created by potrace 1.11, written by Peter Selinger 2001-2013
</metadata>
<g transform="translate(0.000000,700.000000) scale(0.100000,-0.100000)"
fill="#000000" stroke="none">
<path d="M3348 6985 c-2 -1 -50 -6 -108 -10 -148 -10 -228 -19 -270 -30 -8 -2
-37 -6 -65 -10 -27 -3 -79 -13 -115 -21 -36 -9 -76 -18 -90 -20 -105 -20 -351
-98 -501 -159 -748 -304 -1336 -823 -1746 -1540 -41 -71 -140 -277 -182 -379
-67 -160 -160 -466 -185 -606 -2 -14 -11 -63 -20 -110 -14 -78 -19 -110 -31
-210 -18 -148 -26 -514 -14 -625 4 -33 10 -98 14 -145 3 -46 8 -87 10 -90 1
-3 5 -27 9 -55 3 -27 8 -61 11 -75 39 -201 71 -329 117 -470 102 -317 256
-629 445 -904 42 -61 79 -113 82 -116 3 -3 19 -23 35 -45 122 -166 388 -436
571 -581 28 -21 52 -42 55 -45 9 -11 265 -188 290 -201 14 -7 36 -20 50 -29
72 -47 256 -142 385 -198 132 -57 151 -65 210 -86 28 -9 59 -21 70 -25 11 -5
43 -15 70 -23 28 -8 76 -22 107 -32 32 -9 63 -18 70 -19 7 -2 31 -8 53 -14 38
-10 217 -46 280 -56 192 -30 326 -40 540 -40 156 0 323 8 385 18 14 3 52 7 85
11 33 4 83 11 110 16 28 5 64 12 80 15 17 3 50 10 75 15 25 6 56 13 70 15 14
3 79 20 146 39 1106 311 1996 1159 2359 2247 93 278 145 534 172 843 16 188 4
587 -22 735 -3 14 -7 43 -11 65 -86 614 -376 1242 -803 1740 -154 179 -418
423 -581 538 -340 239 -635 390 -990 505 -106 35 -305 88 -362 96 -21 3 -57
10 -80 15 -24 5 -63 12 -88 16 -25 3 -56 8 -70 10 -33 5 -99 13 -190 21 -71 6
-427 13 -432 9z"/>
</g>
</svg>
